# xmcd
#
# Track frame offsets:
#	150
#	18312
#	36135
#	53235
#	67947
#	85112
#	101080
#	118067
#	133595
#	150862
#	167937
#	186190
#	204387
#	219355
#	235832
#
# Disc length: 3336 seconds
#
# Revision: 1
# Processed by: cddbd v1.5.1PL2 Copyright (c) Steve Scherf et al.
# Submitted via: audiograbber 1.83.01
#
DISCID=c20d060f
DTITLE=Music Maestro - MM6262
DYEAR=1900
DGENRE=Karaoke
TTITLE0=Chesnutt, Mark - I Don't Want To Miss A Thing
TTITLE1=Twain, Shania - That Don't Impress Me Much
TTITLE2=Dixie Chicks, The - You Were Mine
TTITLE3=Chesney, Kenny - How Forever Feels
TTITLE4=Sawyer Brown - Drive Me Wild
TTITLE5=Byrd, Tracy - When Mama Ain't Happy
TTITLE6=Griggs, Andy - You Won't Ever Be Lonely
TTITLE7=Womack, Lee Ann - I'll Think Of A Reason Later
TTITLE8=Strait, George - You Haven't Left Me Yet
TTITLE9=Herndon, Ty - Hands Of A Working Man
TTITLE10=South Sixty Five - Random Act Of Senseless Kindness, A
TTITLE11=Wills, Mark - Wish You Were Here
TTITLE12=Harling, Keith - Write It In Stone
TTITLE13=Scruggs, Randy and M.C. Carpenter - It's Only Love
TTITLE14=Dixie Chicks, The - Let 'Er Rip
EXTD=As Listed In KJ Pro
EXTT0=
EXTT1=
EXTT2=
EXTT3=
EXTT4=
EXTT5=
EXTT6=
EXTT7=
EXTT8=
EXTT9=
EXTT10=
EXTT11=
EXTT12=
EXTT13=
EXTT14=
PLAYORDER=
